<svg xmlns="http://www.w3.org/2000/svg" viewBox="0 0 144.99 172.76"><defs><style>.a{fill:#009ad2;}.b{fill:#6d6a63;}</style></defs><title>Blue Bottle Coffee logo</title><path class="a" d="M507.87,431.05l1.48.12s.34,1,.37,1.06a23.31,23.31,0,0,0,7.31-.78c.32-.35,1.31-1.56.33-2.24-3.88.76-9.68-.54-8.91-.28a6.09,6.09,0,0,1-2.66-1.75c-1.82-3-2.75-1-2.82,0,0,3.78,1,3.4,4.9,3.91" transform="translate(-439.51 -425.62)"/><path class="a" d="M534.82,480.32c-.19-1.53-.44-2.94-.69-4.27-1.88-6.46-4.26-13.31-10.72-16.27-2.74-1-7.92-.81-8.66-7.27,0-1.7,0-19.47,0-19.49l-8.24,1.68s0,1.26,0,1.25-.14,3.74-.13,3.72,0,1.75.06,3.9c.16,9.94.71,16.26-10.13,20.32-6.7,2.52-7.13,5.54-7.83,13.2,0,.54-.1,1.1-.13,1.63,0-.23-2.21,21.51,5.1,56.12,0,0,1.12,5.64,1.26,6.44.06.42.5,1,1.64,1.8,12.39,3,15.06.8,21.58,1.68s12.5-3.4,12.63-3.48c.65-.19,2.81-4.65,3.08-10.23,2.56-15.14,1.92-39.25,1.22-50.75" transform="translate(-439.51 -425.62)"/><path class="b" d="M448.57,567.09a3.1,3.1,0,0,1,1.89,2.91c0,2-1.24,4.48-5.32,4.48h-5.64V559.75h5.64c4.08,0,5.32,2.51,5.32,4.5a3.38,3.38,0,0,1-1.89,2.84m-1.52-2.84c0-.34-.23-1.39-1.7-1.39h-2.5v2.92h2.55a1.53,1.53,0,0,0,1.66-1.53m0,5.74c0-.44-.21-1.37-1.66-1.41h-2.55v2.76h2.5c1.47,0,1.7-1,1.7-1.35" transform="translate(-439.51 -425.62)"/><polygon class="b" points="18.24 145.72 23.57 145.72 23.57 148.86 14.86 148.86 14.86 134.13 18.24 134.13 18.24 145.72"/><path class="b" d="M474.31,568.69v-8.94h3.39v8.94a5.89,5.89,0,1,1-11.78,0v-8.94h3.37v8.94c0,.78.52,2.82,2.53,2.82s2.5-2,2.5-2.82" transform="translate(-439.51 -425.62)"/><polygon class="b" points="46.08 143.15 46.08 145.72 52.9 145.72 52.9 148.86 42.71 148.86 42.71 134.13 52.9 134.13 52.9 137.26 46.08 137.26 46.08 140.02 51.4 140.02 51.4 143.15 46.08 143.15"/><path class="b" d="M512.2,567.09a3.1,3.1,0,0,1,1.89,2.91c0,2-1.24,4.48-5.32,4.48h-5.64V559.75h5.64c4.08,0,5.32,2.51,5.32,4.5a3.38,3.38,0,0,1-1.89,2.84m-1.52-2.84c0-.34-.23-1.39-1.7-1.39h-2.5v2.92H509a1.53,1.53,0,0,0,1.66-1.53m0,5.74c0-.44-.21-1.37-1.66-1.41h-2.55v2.76H509c1.47,0,1.7-1,1.7-1.35" transform="translate(-439.51 -425.62)"/><path class="b" d="M531.77,567.09c0,3.16-1.73,7.62-7.3,7.62s-7.32-4.46-7.32-7.62,1.73-7.6,7.32-7.6,7.3,4.53,7.3,7.6m-3.43,0c0-1.09-.48-4.42-3.87-4.42s-3.89,3.33-3.89,4.42.48,4.46,3.89,4.46,3.87-3.37,3.87-4.46" transform="translate(-439.51 -425.62)"/><polygon class="b" points="97.8 137.26 93.94 137.26 93.94 134.13 105.08 134.13 105.08 137.26 101.18 137.26 101.18 148.86 97.8 148.86 97.8 137.26"/><polygon class="b" points="111.35 137.26 107.5 137.26 107.5 134.13 118.63 134.13 118.63 137.26 114.73 137.26 114.73 148.86 111.35 148.86 111.35 137.26"/><polygon class="b" points="125.59 145.72 130.91 145.72 130.91 148.86 122.2 148.86 122.2 134.13 125.59 134.13 125.59 145.72"/><polygon class="b" points="138.17 143.15 138.17 145.72 144.99 145.72 144.99 148.86 134.81 148.86 134.81 134.13 144.99 134.13 144.99 137.26 138.17 137.26 138.17 140.02 143.5 140.02 143.5 143.15 138.17 143.15"/><path class="b" d="M479.08,588.32a5.49,5.49,0,0,0-3.66-1.93c-3.41,0-3.89,3.28-3.89,4.37s.48,4.36,3.91,4.36a6.36,6.36,0,0,0,3.85-1.75l1.93,2.31a8,8,0,0,1-5.81,2.65c-5.6,0-7.32-4.42-7.32-7.58s1.73-7.55,7.32-7.55a7.57,7.57,0,0,1,5.91,2.95Z" transform="translate(-439.51 -425.62)"/><path class="b" d="M498.8,590.76c0,3.16-1.73,7.62-7.3,7.62s-7.32-4.46-7.32-7.62,1.73-7.6,7.32-7.6,7.3,4.53,7.3,7.6m-3.43,0c0-1.09-.48-4.42-3.87-4.42s-3.89,3.33-3.89,4.42.48,4.46,3.89,4.46,3.87-3.37,3.87-4.46" transform="translate(-439.51 -425.62)"/><polygon class="b" points="66.53 166.82 66.53 172.53 63.19 172.53 63.19 157.79 73.35 157.79 73.35 160.93 66.53 160.93 66.53 163.69 71.88 163.69 71.88 166.82 66.53 166.82"/><polygon class="b" points="80.58 166.82 80.58 172.53 77.24 172.53 77.24 157.79 87.4 157.79 87.4 160.93 80.58 160.93 80.58 163.69 85.93 163.69 85.93 166.82 80.58 166.82"/><polygon class="b" points="94.66 166.82 94.66 169.39 101.48 169.39 101.48 172.53 91.3 172.53 91.3 157.79 101.48 157.79 101.48 160.93 94.66 160.93 94.66 163.69 99.98 163.69 99.98 166.82 94.66 166.82"/><polygon class="b" points="108.74 166.82 108.74 169.39 115.56 169.39 115.56 172.53 105.37 172.53 105.37 157.79 115.56 157.79 115.56 160.93 108.74 160.93 108.74 163.69 114.06 163.69 114.06 166.82 108.74 166.82"/></svg>