<?xml version="1.0" standalone="no"?>
<!DOCTYPE svg PUBLIC "-//W3C//DTD SVG 20010904//EN"
 "http://www.w3.org/TR/2001/REC-SVG-20010904/DTD/svg10.dtd">
<svg version="1.0" xmlns="http://www.w3.org/2000/svg"
 width="554.000000pt" height="554.000000pt" viewBox="0 0 554.000000 554.000000"
 preserveAspectRatio="xMidYMid meet">
<metadata>
Created by potrace 1.14, written by Peter Selinger 2001-2017
</metadata>
<g transform="translate(0.000000,554.000000) scale(0.100000,-0.100000)"
fill="#000000" stroke="none">
<path d="M2639 5536 c-2 -2 -22 -7 -44 -10 -87 -13 -112 -18 -165 -34 -30 -9
-57 -16 -60 -17 -17 -3 -89 -30 -110 -41 -14 -7 -53 -26 -87 -43 -68 -33 -105
-53 -113 -61 -3 -3 -18 -12 -35 -20 -16 -8 -37 -19 -45 -26 -8 -6 -37 -24 -65
-39 -27 -15 -95 -53 -150 -85 -55 -32 -116 -67 -135 -78 -19 -10 -106 -61
-194 -111 -87 -50 -162 -91 -166 -91 -5 0 -10 -3 -12 -7 -3 -8 -69 -46 -115
-68 -13 -5 -23 -13 -23 -17 0 -5 -4 -8 -8 -8 -5 0 -76 -38 -158 -85 -187 -108
-269 -169 -365 -270 -71 -76 -129 -143 -129 -149 0 -2 -16 -28 -36 -57 -31
-46 -96 -163 -99 -179 -1 -3 -8 -21 -17 -40 -15 -35 -57 -166 -63 -198 -2 -9
-4 -17 -5 -17 -1 0 -3 -9 -5 -20 -2 -11 -7 -42 -12 -70 -10 -61 -11 -1750 -1
-1820 14 -92 28 -149 65 -255 28 -83 116 -258 144 -289 11 -11 19 -23 19 -26
0 -30 215 -249 310 -316 65 -46 303 -189 315 -189 3 0 11 -5 18 -10 13 -12
697 -410 703 -410 2 0 28 -16 58 -35 30 -19 58 -35 62 -35 4 0 15 -6 23 -14 9
-7 48 -31 86 -51 39 -21 86 -48 105 -60 41 -25 72 -39 83 -37 4 1 7 -3 7 -8 0
-6 8 -10 18 -10 10 0 22 -4 28 -9 8 -8 78 -33 169 -61 35 -10 129 -27 199 -35
27 -3 51 -7 54 -10 3 -2 13 0 23 5 10 6 20 6 23 2 6 -10 176 -2 246 12 8 2 33
6 55 10 93 18 272 83 353 128 93 52 156 89 197 116 11 6 27 15 35 19 8 4 86
49 173 100 88 51 162 93 165 93 3 0 13 6 21 14 9 7 41 26 71 42 30 16 57 32
60 35 3 4 25 17 50 29 25 12 47 25 50 29 3 3 19 13 35 21 17 7 45 25 63 38 17
12 32 20 32 16 0 -3 7 0 16 7 17 14 32 23 85 53 255 141 416 253 521 362 84
87 198 243 198 269 0 5 6 16 13 24 7 9 26 45 41 81 15 36 31 74 37 85 10 22
45 153 54 200 3 17 9 48 13 70 9 52 9 1788 -1 1840 -44 242 -102 376 -254 595
-21 30 -197 207 -233 234 -52 39 -190 126 -200 126 -5 0 -10 4 -10 8 0 4 -12
13 -27 19 -16 7 -50 25 -78 41 -102 60 -467 271 -790 457 -93 53 -182 106
-197 117 -16 11 -28 16 -28 12 0 -4 -8 0 -17 8 -25 21 -114 68 -203 106 -152
65 -287 93 -486 97 -84 2 -153 2 -155 1z m256 -1481 c118 -12 252 -42 330 -75
133 -56 295 -145 295 -162 0 -4 7 -8 15 -8 13 0 218 -197 260 -250 34 -45 115
-180 145 -243 77 -164 112 -323 115 -519 4 -306 -79 -560 -264 -803 -46 -61
-208 -225 -222 -225 -4 0 -14 -6 -21 -13 -42 -42 -209 -137 -308 -175 -54 -21
-176 -56 -235 -67 -134 -25 -354 -23 -479 5 -22 5 -52 11 -66 14 -107 20 -270
95 -402 183 -295 197 -499 520 -553 878 -13 91 -13 290 0 375 11 70 52 225 70
267 52 119 130 260 175 316 17 22 115 131 131 146 208 205 498 336 791 357 46
4 84 7 85 8 2 2 75 -2 138 -9z"/>
</g>
</svg>
